# xmcd
#
# Track frame offsets:
#	150
#	13240
#	22097
#	36167
#	44459
#	58023
#	67548
#	76471
#	93053
#	108924
#	120487
#	134098
#
# Disc length: 1944 seconds
#
# Revision: 0
# Processed by: cddbd v1.5.2PL0 Copyright (c) Steve Scherf et al.
# Submitted via: audiograbber 1.83.01
#
DISCID=9907960c
DTITLE=cornelio reyna - vol1
DYEAR=1900
DGENRE=karaoke
TTITLE0=me cai de la nube
TTITLE1=me sacaron del tenampa
TTITLE2=barrio pobre
TTITLE3=hay ojitos
TTITLE4=lagrimas de mi barrio
TTITLE5=ya no llores
TTITLE6=que tal si compro
TTITLE7=me caiste del cielo
TTITLE8=te vas angel mio
TTITLE9=botellitas
TTITLE10=hay un mar
TTITLE11=una nube
EXTD=
EXTT0=
EXTT1=
EXTT2=
EXTT3=
EXTT4=
EXTT5=
EXTT6=
EXTT7=
EXTT8=
EXTT9=
EXTT10=
EXTT11=
PLAYORDER=
